REM DIRINDEX 1\2\4,1\2\5,1\2\6,1\3\7,1\3\8,1\3\9,1\3\10
REM DIRNAME cjc057,folder01,folder02,folder03,folder04,folder05,folder06,folder07,folder08,folder09
TITLE ""
FILE "b_019.mp3" MP3
  TRACK 01 AUDIO
    TITLE "0:"
    INDEX 01 00:00:00
  TRACK 02 AUDIO
    TITLE "7:cjc057_04904"
    INDEX 01 00:00:13
  TRACK 03 AUDIO
    TITLE "0:"
    INDEX 01 00:01:44
  TRACK 04 AUDIO
    TITLE "8:cjc057_04905"
    INDEX 01 00:01:73
  TRACK 05 AUDIO
    TITLE "0:"
    INDEX 01 00:03:12
  TRACK 06 AUDIO
    TITLE "9:cjc057_04906"
    INDEX 01 00:03:57
  TRACK 07 AUDIO
    TITLE "0:"
    INDEX 01 00:07:29
  TRACK 08 AUDIO
    TITLE "7:cjc057_04907"
    INDEX 01 00:08:32
  TRACK 09 AUDIO
    TITLE "0:"
    INDEX 01 00:09:49
  TRACK 10 AUDIO
    TITLE "8:cjc057_04908"
    INDEX 01 00:10:04
  TRACK 11 AUDIO
    TITLE "0:"
    INDEX 01 00:12:09
  TRACK 12 AUDIO
    TITLE "9:cjc057_04909"
    INDEX 01 00:12:50
  TRACK 13 AUDIO
    TITLE "0:"
    INDEX 01 00:15:05
  TRACK 14 AUDIO
    TITLE "7:cjc057_04910"
    INDEX 01 00:16:10
  TRACK 15 AUDIO
    TITLE "0:"
    INDEX 01 00:17:27
  TRACK 16 AUDIO
    TITLE "8:cjc057_04911"
    INDEX 01 00:17:57
  TRACK 17 AUDIO
    TITLE "0:"
    INDEX 01 00:19:22
  TRACK 18 AUDIO
    TITLE "9:cjc057_04912"
    INDEX 01 00:19:62
  TRACK 19 AUDIO
    TITLE "0:"
    INDEX 01 00:24:37
  TRACK 20 AUDIO
    TITLE "7:cjc057_04913"
    INDEX 01 00:25:43
  TRACK 21 AUDIO
    TITLE "0:"
    INDEX 01 00:26:50
  TRACK 22 AUDIO
    TITLE "8:cjc057_04914"
    INDEX 01 00:27:04
  TRACK 23 AUDIO
    TITLE "0:"
    INDEX 01 00:29:19
  TRACK 24 AUDIO
    TITLE "9:cjc057_04915"
    INDEX 01 00:29:62
  TRACK 25 AUDIO
    TITLE "0:"
    INDEX 01 00:32:52
  TRACK 26 AUDIO
    TITLE "7:cjc057_04916"
    INDEX 01 00:33:56
  TRACK 27 AUDIO
    TITLE "0:"
    INDEX 01 00:35:08
  TRACK 28 AUDIO
    TITLE "8:cjc057_04917"
    INDEX 01 00:35:39
  TRACK 29 AUDIO
    TITLE "0:"
    INDEX 01 00:37:10
  TRACK 30 AUDIO
    TITLE "9:cjc057_04918"
    INDEX 01 00:37:52
  TRACK 31 AUDIO
    TITLE "0:"
    INDEX 01 00:40:68
  TRACK 32 AUDIO
    TITLE "7:cjc057_04919"
    INDEX 01 00:41:73
  TRACK 33 AUDIO
    TITLE "0:"
    INDEX 01 00:43:39
  TRACK 34 AUDIO
    TITLE "8:cjc057_04920"
    INDEX 01 00:43:64
  TRACK 35 AUDIO
    TITLE "0:"
    INDEX 01 00:46:27
  TRACK 36 AUDIO
    TITLE "9:cjc057_04921"
    INDEX 01 00:46:68
  TRACK 37 AUDIO
    TITLE "0:"
    INDEX 01 00:50:62
  TRACK 38 AUDIO
    TITLE "7:cjc057_04922"
    INDEX 01 00:51:65
  TRACK 39 AUDIO
    TITLE "0:"
    INDEX 01 00:53:29
  TRACK 40 AUDIO
    TITLE "8:cjc057_04923"
    INDEX 01 00:53:58
  TRACK 41 AUDIO
    TITLE "0:"
    INDEX 01 00:55:14
  TRACK 42 AUDIO
    TITLE "9:cjc057_04924"
    INDEX 01 00:55:53
  TRACK 43 AUDIO
    TITLE "0:"
    INDEX 01 00:58:48
  TRACK 44 AUDIO
    TITLE "7:cjc057_04925"
    INDEX 01 00:59:51
  TRACK 45 AUDIO
    TITLE "0:"
    INDEX 01 01:01:07
  TRACK 46 AUDIO
    TITLE "8:cjc057_04926"
    INDEX 01 01:01:36
  TRACK 47 AUDIO
    TITLE "0:"
    INDEX 01 01:02:71
  TRACK 48 AUDIO
    TITLE "9:cjc057_04927"
    INDEX 01 01:03:35
  TRACK 49 AUDIO
    TITLE "0:"
    INDEX 01 01:06:55
  TRACK 50 AUDIO
    TITLE "7:cjc057_04928"
    INDEX 01 01:07:59
  TRACK 51 AUDIO
    TITLE "0:"
    INDEX 01 01:09:10
  TRACK 52 AUDIO
    TITLE "8:cjc057_04929"
    INDEX 01 01:09:40
  TRACK 53 AUDIO
    TITLE "0:"
    INDEX 01 01:10:69
  TRACK 54 AUDIO
    TITLE "9:cjc057_04930"
    INDEX 01 01:11:37
  TRACK 55 AUDIO
    TITLE "0:"
    INDEX 01 01:15:23
  TRACK 56 AUDIO
    TITLE "7:cjc057_04931"
    INDEX 01 01:16:28
  TRACK 57 AUDIO
    TITLE "0:"
    INDEX 01 01:17:55
  TRACK 58 AUDIO
    TITLE "8:cjc057_04932"
    INDEX 01 01:18:09
  TRACK 59 AUDIO
    TITLE "0:"
    INDEX 01 01:20:30
  TRACK 60 AUDIO
    TITLE "9:cjc057_04933"
    INDEX 01 01:20:73
  TRACK 61 AUDIO
    TITLE "0:"
    INDEX 01 01:24:14
  TRACK 62 AUDIO
    TITLE "7:cjc057_04934"
    INDEX 01 01:25:17
  TRACK 63 AUDIO
    TITLE "0:"
    INDEX 01 01:26:36
  TRACK 64 AUDIO
    TITLE "8:cjc057_04935"
    INDEX 01 01:26:66
  TRACK 65 AUDIO
    TITLE "0:"
    INDEX 01 01:29:05
  TRACK 66 AUDIO
    TITLE "9:cjc057_04936"
    INDEX 01 01:29:46
  TRACK 67 AUDIO
    TITLE "0:"
    INDEX 01 01:32:64
